<svg width="2024" height="1106" viewBox="0 0 2024 1106" fill="none" xmlns="http://www.w3.org/2000/svg">
<path d="M1418.97 557.051C1392.51 559.847 1367.99 559.32 1346.03 557.051C1341.57 565.802 1335.13 575.849 1325.77 585.41C1293.47 618.388 1250.4 621.467 1236.62 621.872C1219.15 622.115 1192.17 621.669 1159.63 617.82C1084.5 608.908 1029.18 587.557 823.289 488.179C729.722 443.008 718.538 436.526 701.721 423.359C664.684 394.392 563.215 314.987 580.154 220.795C594.337 141.835 682.919 101.647 697.669 95.2051V66.8462L752.374 0L671.329 72.9231C598.389 98.5677 525.448 124.253 452.508 149.897C424.507 147.305 395.452 143.983 365.385 139.769C327.739 134.503 291.917 128.304 258 121.538C264.767 124.374 327.375 151.761 341.071 216.744C347.676 248.182 339.936 274.596 334.993 287.641L472.769 392.974L703.747 478.051L999.562 579.333L1019.82 672.513C1088.71 699.535 1157.6 726.516 1226.49 753.538C1258.05 756.577 1297.73 756.658 1341.98 747.462C1355.75 744.585 1368.6 741.142 1380.47 737.333C1371.44 752.566 1361.35 768.164 1350.08 783.923C1305.18 846.758 1255.1 893.51 1210.28 927.744C1210.28 927.744 902.308 1101.95 894.203 1106L1204.2 950.026L1289.3 978.385L1423.02 852.795L1654 439.564C1617.98 475.256 1536.61 544.695 1418.97 557.051ZM557.866 299.795C550.694 298.336 546.196 295.541 543.684 293.718C523.382 278.809 530.109 247.695 519.37 192.436C517.101 180.647 514.71 171.329 513.292 166.103C544.372 156.663 575.413 147.183 606.493 137.744C595.552 147.872 571.766 172.585 559.893 212.692C548.222 252.152 554.3 285.291 557.866 299.795Z" fill="url(#paint0_linear_8_49)"/>
<path d="M302.654 811.023C297.833 784.382 291.889 756.545 284.531 727.657C281.051 713.992 277.427 700.69 273.657 687.786C286.959 693.839 300.225 699.856 313.528 705.909C292.614 687.641 255.063 649.946 230.162 589.922C206.312 532.472 205.225 481.511 206.602 454C190.472 488.144 168.761 527.326 139.547 568.175C98.2628 625.915 54.6589 669.228 18.123 700.472L0 867.204L141.359 1008.56L173.981 1004.94L88.8026 919.761L77.9288 767.528C99.6764 736.102 121.424 704.713 143.172 673.288C169.667 674.919 181.157 683.437 186.667 691.411C193.88 701.886 189.059 708.845 197.54 731.282C205.297 751.797 211.386 751.434 212.039 763.903C212.691 776.372 206.783 780.721 204.79 800.149C203.847 809.283 204.282 816.894 204.79 821.896C225.196 842.774 245.748 864.522 266.408 887.139C305.626 930.091 341.799 972.571 375.146 1014H404.142C370.325 946.329 336.471 878.694 302.654 811.023ZM251.909 852.705C237.447 842.194 226.102 831.357 217.476 821.896C229.111 794.639 228.241 773.726 226.537 762.091C225.704 756.472 222.369 746.287 215.663 725.845C205.623 695.217 201.201 687.678 197.54 682.35C189.603 670.86 180.469 663.357 173.981 658.79L192.104 640.667C198.773 649.438 205.442 658.5 212.039 667.851C237.411 703.698 258.977 739.038 277.282 772.964C285.147 808.594 292.976 844.26 300.841 879.89C287.104 874.308 269.887 865.79 251.909 852.705Z" fill="#D5B1FB"/>
<path d="M1672 418C1714.3 374.661 1775 321.409 1856.66 273.921C1918.23 238.074 1976.05 214.618 2024 199C1976.05 220.324 1925.44 246.777 1873.97 279.684C1862.08 287.292 1850.54 295.014 1839.34 302.737C1852.79 304.639 1866.29 306.598 1879.74 308.5C1810.49 344.981 1741.25 381.519 1672 418Z" fill="#D2C3F1"/>
<defs>
<linearGradient id="paint0_linear_8_49" x1="956" y1="0" x2="956" y2="1106" gradientUnits="userSpaceOnUse">
<stop stop-color="#D2C3F1"/>
<stop offset="1" stop-color="#6F5B90"/>
</linearGradient>
</defs>
</svg>
