<svg width="1825" height="1825" viewBox="0 0 1825 1825" fill="none" xmlns="http://www.w3.org/2000/svg">
<path d="M1623.02 1749.65H201.977V1820H1623.02V1749.65Z" stroke="#D5B1FB" stroke-width="10" stroke-miterlimit="10"/>
<path d="M201.977 1693.37H5V1749.65H201.977V1693.37Z" stroke="#D5B1FB" stroke-width="10" stroke-miterlimit="10"/>
<path d="M1820 1693.37H1623.02V1749.65H1820V1693.37Z" stroke="#D5B1FB" stroke-width="10" stroke-miterlimit="10"/>
<path d="M5 201.977L5 1623.02H75.3488L75.3488 201.977H5Z" stroke="#D5B1FB" stroke-width="10" stroke-miterlimit="10"/>
<path d="M75.3486 1623.02L75.3486 1820H131.628V1623.02H75.3486Z" stroke="#D5B1FB" stroke-width="10" stroke-miterlimit="10"/>
<path d="M75.3486 5.00026L75.3486 201.977H131.628V5.00026H75.3486Z" stroke="#D5B1FB" stroke-width="10" stroke-miterlimit="10"/>
<path d="M1749.65 201.977V1623.02H1820V201.977H1749.65Z" stroke="#D5B1FB" stroke-width="10" stroke-miterlimit="10"/>
<path d="M1693.37 1623.02V1820H1749.65V1623.02H1693.37Z" stroke="#D5B1FB" stroke-width="10" stroke-miterlimit="10"/>
<path d="M1693.37 5.00026V201.977H1749.65V5.00026H1693.37Z" stroke="#D5B1FB" stroke-width="10" stroke-miterlimit="10"/>
<path d="M1623.02 5H201.977V75.3489H1623.02V5Z" stroke="#D5B1FB" stroke-width="10" stroke-miterlimit="10"/>
<path d="M201.977 75.3486H5V131.628H201.977V75.3486Z" stroke="#D5B1FB" stroke-width="10" stroke-miterlimit="10"/>
<path d="M1820 75.3486H1623.02V131.628H1820V75.3486Z" stroke="#D5B1FB" stroke-width="10" stroke-miterlimit="10"/>
</svg>
